<svg xmlns="http://www.w3.org/2000/svg" viewBox="0 0 1200 630" width="1200" height="630">
  <defs>
    <linearGradient id="g" x1="0" y1="0" x2="1200" y2="630" gradientUnits="userSpaceOnUse">
      <stop offset="0" stop-color="#22d3ee"/><stop offset=".55" stop-color="#3b82f6"/><stop offset="1" stop-color="#8b5cf6"/>
    </linearGradient>
    <radialGradient id="glow" cx="50%" cy="0%" r="80%">
      <stop offset="0" stop-color="#22d3ee" stop-opacity=".22"/><stop offset="1" stop-color="#070b16" stop-opacity="0"/>
    </radialGradient>
  </defs>
  <rect width="1200" height="630" fill="#070b16"/>
  <rect width="1200" height="630" fill="url(#glow)"/>
  <g stroke="#22d3ee" stroke-opacity=".08" stroke-width="1">
    <path d="M0 158h1200M0 316h1200M0 474h1200M200 0v630M400 0v630M600 0v630M800 0v630M1000 0v630"/>
  </g>
  <g transform="translate(96 232)">
    <polygon points="48,12 81,31 48,50 15,31" fill="#5eeaff"/>
    <polygon points="15,31 48,50 48,84 15,65" fill="#3b82f6"/>
    <polygon points="81,31 48,50 48,84 81,65" fill="#8b5cf6"/>
    <polyline points="15,31 48,50 81,31" fill="none" stroke="#070b16" stroke-width="1.6" opacity=".25"/>
    <polyline points="48,50 48,84" fill="none" stroke="#070b16" stroke-width="1.6" opacity=".25"/>
  </g>
  <text x="216" y="296" font-family="'Space Grotesk',sans-serif" font-size="44" font-weight="700" fill="#ffffff">INVEN<tspan fill="#22d3ee">TRA</tspan></text>
  <text x="218" y="324" font-family="'JetBrains Mono',monospace" font-size="16" letter-spacing="6" fill="#7e8aa6">DESIGN · AUTOMATION</text>
  <text x="96" y="440" font-family="'Space Grotesk',sans-serif" font-size="64" font-weight="700" fill="#ffffff">We design, automate &amp; engineer</text>
  <text x="96" y="510" font-family="'Space Grotesk',sans-serif" font-size="64" font-weight="700" fill="url(#g)">the systems that move industry.</text>
  <text x="96" y="566" font-family="'Inter',sans-serif" font-size="24" fill="#aeb9d0">Industrial Automation · Embedded · PLC/HMI · IoT</text>
</svg>
